<?xml version="1.0" encoding="utf-8"?>
<!-- Generator: Adobe Illustrator 16.0.0, SVG Export Plug-In . SVG Version: 6.00 Build 0)  -->
<!DOCTYPE svg PUBLIC "-//W3C//DTD SVG 1.1//EN" "http://www.w3.org/Graphics/SVG/1.1/DTD/svg11.dtd">
<svg version="1.1" xmlns="http://www.w3.org/2000/svg" xmlns:xlink="http://www.w3.org/1999/xlink" x="0px" y="0px"
	 width="850.578px" height="598.47px" viewBox="0 0 850.578 598.47" enable-background="new 0 0 850.578 598.47"
	 xml:space="preserve">
<g id="pantalla_pc">
	<rect x="111" y="93.892" opacity="0.9" fill="#003399" width="129" height="284"/>
	<rect x="230" y="112.892" fill="#E6E6E6" width="408" height="274"/>
	<rect x="110.5" y="93.392" fill="#FFFFFF" stroke="#CCCCCC" stroke-miterlimit="10" width="523" height="31"/>
	<ellipse opacity="0.6" fill="#0000FF" cx="137.289" cy="108.453" rx="11.754" ry="11.225"/>
	<path opacity="0.6" fill="#0000FF" d="M206,108.559c0,2.394-1.94,4.333-4.333,4.333h-45.334c-2.393,0-4.333-1.94-4.333-4.333
		v-0.333c0-2.394,1.94-4.333,4.333-4.333h45.334c2.393,0,4.333,1.94,4.333,4.333V108.559z"/>
	<path opacity="0.6" fill="#CCCCCC" d="M207,153.559c0,2.394-2.733,4.333-6.102,4.333h-63.8c-3.368,0-6.098-1.94-6.098-4.333v-0.333
		c0-2.394,2.73-4.333,6.098-4.333h63.8c3.368,0,6.102,1.94,6.102,4.333V153.559z"/>
	<path opacity="0.6" fill="#CCCCCC" d="M206,173.559c0,2.394-2.733,4.333-6.102,4.333h-63.8c-3.368,0-6.098-1.94-6.098-4.333v-0.333
		c0-2.394,2.73-4.333,6.098-4.333h63.8c3.368,0,6.102,1.94,6.102,4.333V173.559z"/>
	<path opacity="0.6" fill="#CCCCCC" d="M207,195.559c0,2.394-2.733,4.333-6.102,4.333h-63.8c-3.368,0-6.098-1.94-6.098-4.333v-0.333
		c0-2.394,2.73-4.333,6.098-4.333h63.8c3.368,0,6.102,1.94,6.102,4.333V195.559z"/>
	<path opacity="0.6" fill="#CCCCCC" d="M207,217.559c0,2.394-2.733,4.333-6.102,4.333h-63.8c-3.368,0-6.098-1.94-6.098-4.333v-0.333
		c0-2.394,2.73-4.333,6.098-4.333h63.8c3.368,0,6.102,1.94,6.102,4.333V217.559z"/>
	<rect x="256" y="138.892" fill="#FFFFFF" width="349" height="21"/>
	<rect x="256" y="177.892" fill="#FFFFFF" width="349" height="21"/>
	<ellipse opacity="0.6" fill="#CCCCCC" cx="271.787" cy="188.782" rx="7.252" ry="6.968"/>
	<path fill="#E6E6E6" d="M351,152.642c0,1.243-1.007,2.25-2.25,2.25h-81.5c-1.243,0-2.25-1.007-2.25-2.25v-0.5
		c0-1.243,1.007-2.25,2.25-2.25h81.5c1.243,0,2.25,1.007,2.25,2.25V152.642z"/>
	<path fill="#E6E6E6" d="M375,185.642c0,1.243-1.007,2.25-2.25,2.25h-81.5c-1.243,0-2.25-1.007-2.25-2.25v-0.5
		c0-1.243,1.007-2.25,2.25-2.25h81.5c1.243,0,2.25,1.007,2.25,2.25V185.642z"/>
	<path fill="#E6E6E6" d="M351,191.892c0,0.552-0.448,1-1,1h-60c-0.552,0-1-0.448-1-1l0,0c0-0.552,0.448-1,1-1h60
		C350.552,190.892,351,191.34,351,191.892L351,191.892z"/>
	<rect x="533" y="181.892" opacity="0.6" fill="#CE3636" width="17" height="11"/>
	<rect x="516" y="181.892" opacity="0.6" fill="#CCCCCC" width="17" height="11"/>
	<rect x="256" y="198.892" fill="#FFFFFF" width="349" height="21"/>
	<ellipse opacity="0.6" fill="#CCCCCC" cx="271.787" cy="209.782" rx="7.252" ry="6.968"/>
	<path fill="#E6E6E6" d="M375,206.642c0,1.243-1.007,2.25-2.25,2.25h-81.5c-1.243,0-2.25-1.007-2.25-2.25v-0.5
		c0-1.243,1.007-2.25,2.25-2.25h81.5c1.243,0,2.25,1.007,2.25,2.25V206.642z"/>
	<path fill="#E6E6E6" d="M351,212.892c0,0.552-0.448,1-1,1h-60c-0.552,0-1-0.448-1-1l0,0c0-0.552,0.448-1,1-1h60
		C350.552,211.892,351,212.34,351,212.892L351,212.892z"/>
	<rect x="533" y="202.892" opacity="0.6" fill="#CCCCCC" width="17" height="11"/>
	<rect x="516" y="202.892" opacity="0.6" fill="#5BC64F" width="17" height="11"/>
	<rect x="256" y="219.892" fill="#FFFFFF" width="349" height="21"/>
	<ellipse opacity="0.6" fill="#CCCCCC" cx="271.787" cy="230.782" rx="7.252" ry="6.968"/>
	<path fill="#E6E6E6" d="M375,227.642c0,1.243-1.007,2.25-2.25,2.25h-81.5c-1.243,0-2.25-1.007-2.25-2.25v-0.5
		c0-1.243,1.007-2.25,2.25-2.25h81.5c1.243,0,2.25,1.007,2.25,2.25V227.642z"/>
	<path fill="#E6E6E6" d="M351,233.892c0,0.552-0.448,1-1,1h-60c-0.552,0-1-0.448-1-1l0,0c0-0.552,0.448-1,1-1h60
		C350.552,232.892,351,233.34,351,233.892L351,233.892z"/>
	<rect x="533" y="223.892" opacity="0.6" fill="#CE3636" width="17" height="11"/>
	<rect x="516" y="223.892" opacity="0.6" fill="#CCCCCC" width="17" height="11"/>
	<rect x="256" y="240.892" fill="#FFFFFF" width="349" height="21"/>
	<ellipse opacity="0.6" fill="#CCCCCC" cx="271.787" cy="251.782" rx="7.252" ry="6.968"/>
	<path fill="#E6E6E6" d="M375,248.642c0,1.243-1.007,2.25-2.25,2.25h-81.5c-1.243,0-2.25-1.007-2.25-2.25v-0.5
		c0-1.243,1.007-2.25,2.25-2.25h81.5c1.243,0,2.25,1.007,2.25,2.25V248.642z"/>
	<path fill="#E6E6E6" d="M351,254.892c0,0.552-0.448,1-1,1h-60c-0.552,0-1-0.448-1-1l0,0c0-0.552,0.448-1,1-1h60
		C350.552,253.892,351,254.34,351,254.892L351,254.892z"/>
	<rect x="533" y="244.892" opacity="0.6" fill="#CCCCCC" width="17" height="11"/>
	<rect x="516" y="244.892" opacity="0.6" fill="#5BC64F" width="17" height="11"/>
	<rect x="256" y="261.892" fill="#FFFFFF" width="349" height="21"/>
	<ellipse opacity="0.6" fill="#CCCCCC" cx="271.787" cy="272.782" rx="7.252" ry="6.968"/>
	<path fill="#E6E6E6" d="M375,269.642c0,1.243-1.007,2.25-2.25,2.25h-81.5c-1.243,0-2.25-1.007-2.25-2.25v-0.5
		c0-1.243,1.007-2.25,2.25-2.25h81.5c1.243,0,2.25,1.007,2.25,2.25V269.642z"/>
	<path fill="#E6E6E6" d="M351,275.892c0,0.552-0.448,1-1,1h-60c-0.552,0-1-0.448-1-1l0,0c0-0.552,0.448-1,1-1h60
		C350.552,274.892,351,275.34,351,275.892L351,275.892z"/>
	<rect x="533" y="265.892" opacity="0.6" fill="#CCCCCC" width="17" height="11"/>
	<rect x="516" y="265.892" opacity="0.6" fill="#5BC64F" width="17" height="11"/>
	<ellipse opacity="0.5" fill="#0000FF" cx="578.289" cy="349.453" rx="11.754" ry="11.225"/>
</g>
<g id="PC">
	<g id="XMLID_1_">
		<g>
			<path fill="#DFE5E5" d="M733.501,410.144v28.436h-40.024H44.188H9.5v-28.436H89.55h216.577c-3.682,0-6.67,3.185-6.67,7.109v0.947
				c0,3.924,2.988,7.109,6.67,7.109h132.526c3.683,0,6.671-3.186,6.671-7.109v-0.947c0-3.925-2.988-7.109-6.671-7.109H655.23
				H733.501z"/>
			<path fill="#9E9E9E" d="M694.366,453.746h-0.89H48.636H45.22c-9.535-0.151-35.72-1.782-35.72-15.166h34.688h649.288h40.024
				C733.501,454.94,694.366,453.746,694.366,453.746z"/>
			<path d="M655.23,62.846v347.298H438.653H306.127H89.55V65.766v-2.37c0-13.042,10.371-21.403,19.905-21.403l525.443,0.36
				C644.077,42.354,654.501,50.638,655.23,62.846z M633.884,93.557V76.496H151.988h-41.092v17.062v284.359h522.988V93.557z"/>
			<path fill="#C4C4C4" d="M633.884,76.496v17.062H151.988v-3.318c2.74,0,4.963-2.256,4.963-5.042s-2.224-5.042-4.963-5.042v-3.659
				H633.884z"/>
			<path fill="#9E9E9E" d="M445.324,417.253v0.947c0,3.924-2.988,7.109-6.671,7.109H306.127c-3.682,0-6.67-3.186-6.67-7.109v-0.947
				c0-3.925,2.988-7.109,6.67-7.109h132.526C442.335,410.144,445.324,413.329,445.324,417.253z"/>
			<path fill="#5BC64F" d="M151.988,80.154c2.74,0,4.963,2.256,4.963,5.042s-2.224,5.042-4.963,5.042
				c-2.739,0-4.945-2.256-4.945-5.042S149.249,80.154,151.988,80.154z"/>
			<path fill="#C4C4C4" d="M151.988,90.239v3.318h-41.092V76.496h41.092v3.659c-2.739,0-4.945,2.256-4.945,5.042
				S149.249,90.239,151.988,90.239z M142.72,85.197c0-2.787-2.224-5.042-4.963-5.042c-2.739,0-4.945,2.256-4.945,5.042
				s2.206,5.042,4.945,5.042C140.497,90.239,142.72,87.983,142.72,85.197z M128.489,85.197c0-2.787-2.224-5.042-4.963-5.042
				c-2.739,0-4.945,2.256-4.945,5.042s2.206,5.042,4.945,5.042C126.266,90.239,128.489,87.983,128.489,85.197z"/>
			<path fill="#D8D841" d="M137.757,80.154c2.74,0,4.963,2.256,4.963,5.042s-2.224,5.042-4.963,5.042
				c-2.739,0-4.945-2.256-4.945-5.042S135.018,80.154,137.757,80.154z"/>
			<path fill="#CE3636" d="M123.526,80.154c2.74,0,4.963,2.256,4.963,5.042s-2.224,5.042-4.963,5.042
				c-2.739,0-4.945-2.256-4.945-5.042S120.787,80.154,123.526,80.154z"/>
		</g>
		<g>
		</g>
	</g>
	<g id="brillo">
		
			<linearGradient id="SVGID_1_" gradientUnits="userSpaceOnUse" x1="32.7739" y1="84.6714" x2="887.5288" y2="84.6714" gradientTransform="matrix(-0.347 0 0 1 314.1515 0)">
			<stop  offset="0" style="stop-color:#FFFFFF"/>
			<stop  offset="1" style="stop-color:#000000"/>
		</linearGradient>
		<path opacity="0.24" fill="url(#SVGID_1_)" d="M231.601,85.904c3.352,0.049,6.702,0.113,10.053,0.201
			c0.262-0.043,0.524-0.085,0.787-0.128c0.805-0.919,1.99-1.545,3.56-1.584c2.123-0.052,4.249-0.068,6.377-0.062
			c2.367-0.384,4.735-0.75,7.103-1.093c-9.796,0.646-19.588,1.567-29.341,2.38C230.627,85.711,231.115,85.803,231.601,85.904z"/>
		
			<linearGradient id="SVGID_2_" gradientUnits="userSpaceOnUse" x1="32.7739" y1="106.186" x2="887.5292" y2="106.186" gradientTransform="matrix(-0.347 0 0 1 314.1515 0)">
			<stop  offset="0" style="stop-color:#FFFFFF"/>
			<stop  offset="1" style="stop-color:#000000"/>
		</linearGradient>
		<path opacity="0.24" fill="url(#SVGID_2_)" d="M322.329,113.571c0.543,0.118,1.019,0.327,1.435,0.597
			c-3.764-6.711-7.643-12.135-11.626-15.964c0.572,2.201-0.366,4.896-2.704,6.098c0.688,0.028,1.377,0.053,2.065,0.09
			c4.073,0.219,6.093,5.31,4.226,8.1C317.933,112.748,320.135,113.093,322.329,113.571z"/>
		
			<linearGradient id="SVGID_3_" gradientUnits="userSpaceOnUse" x1="32.7739" y1="150.48" x2="887.5316" y2="150.48" gradientTransform="matrix(-0.347 0 0 1 314.1515 0)">
			<stop  offset="0" style="stop-color:#FFFFFF"/>
			<stop  offset="1" style="stop-color:#000000"/>
		</linearGradient>
		<path opacity="0.24" fill="url(#SVGID_3_)" d="M341.535,157.031c-1.489-4.531-3.004-8.912-4.545-13.102
			c-3.608,0.603-7.223,1.146-10.843,1.637c-0.367,1.117-1.145,2.103-2.331,2.732C330.046,150.705,337.384,153.869,341.535,157.031z"
			/>
		
			<linearGradient id="SVGID_4_" gradientUnits="userSpaceOnUse" x1="32.7739" y1="227.4414" x2="887.5298" y2="227.4414" gradientTransform="matrix(-0.347 0 0 1 314.1515 0)">
			<stop  offset="0" style="stop-color:#FFFFFF"/>
			<stop  offset="1" style="stop-color:#000000"/>
		</linearGradient>
		<path opacity="0.24" fill="url(#SVGID_4_)" d="M386.303,371.098c-0.617,0.178-1.241,0.337-1.863,0.503
			c-1.846,0.632-3.718,1.221-5.621,1.755c-8.773,1.179-17.546,2.357-26.318,3.536c-7.771-0.85-15.62-1.678-23.39-2.9
			c-8.313-0.702-16.399-2.338-24.147-4.866c-9.918,3.41-20.506,5.267-31.463,5.267c-2.971,0-5.913-0.145-8.824-0.411
			c-4.318,0.595-8.715,0.911-13.176,0.911c-5.568,0-11.04-0.486-16.378-1.406c-5.419,0.914-10.958,1.389-16.622,1.406l-5.411-0.727
			c-3.945,0.174-7.891,0.341-11.839,0.477c-8.817,0.304-17.825,1.178-26.641,0.772c-4.601-0.211-9.184-0.759-13.786-0.924
			c-2.014-0.071-4.046-0.141-6.062-0.024c-0.185,0.084-0.419,0.181-0.714,0.293c0.234-0.103,0.454-0.198,0.663-0.29l-0.057,0.003
			c-1.819,0.776-3.64,1.549-5.47,2.299c-2.748,0.936-5.621,1.306-8.542,1.468c-7.463,0.414-15.912-2.876-21.081-8.295
			c-10.097-10.587-11.84-24.651-7.012-38.132c0.749-2.091,1.484-4.201,2.083-6.346c-1.048-2.673-1.632-5.564-1.632-8.573v-4.09
			c-1.665-10.302-1.479-21.062,0.603-31.249c-0.083-0.619-0.186-1.277-0.274-1.826c-0.146-0.484-0.292-0.967-0.471-1.455
			c-1.663-4.537-1.422-9.302,0.134-13.674c-1.619-7.004-2.491-14.267-2.491-21.706c0-10.7,1.778-21.046,5.039-30.762
			c-1.313-6.283-2.01-12.769-2.034-19.391c-0.332-3.243-0.504-6.528-0.504-9.847c0-3.373,0.187-6.707,0.531-10
			c-3.274-7.425-3.858-16.357-3.368-24.12c0.231-3.667,0.626-7.331,0.758-11.004c0.048-1.347,0.1-2.704,0.063-4.055
			c-0.04-0.136-0.082-0.28-0.127-0.44c-0.62-2.206-0.877-4.437-0.838-6.638c-0.008-0.247-0.02-0.494-0.02-0.742
			c0-3.694,0.871-7.214,2.415-10.366c0.119-0.506,0.253-1.008,0.411-1.502c-0.915-9.021-1.664-17.891-0.826-27.131
			c0.045-0.497,0.153-0.951,0.304-1.371c-2.991-2.918-0.257-9.532,5.025-8.451c2.326,0.476,4.662,0.855,7.004,1.154
			c0.753-1.352,2.141-2.336,4.167-2.333c32.903,0.051,65.608,2.695,98.472-0.01c14.58-1.2,29.212-2.645,43.821-3.165
			c-49.464-22.015-107.98-27.825-107.98-27.825H95v364.686l296.601,0.413C391.601,409.991,389.753,394.817,386.303,371.098z"/>
	</g>
</g>
<g id="pantalla_mob">
	<rect x="589" y="190.892" fill="#E6E6E6" width="214" height="344"/>
	<rect x="589.5" y="168.497" fill="#FFFFFF" stroke="#CCCCCC" stroke-miterlimit="10" width="213.334" height="31"/>
	<rect x="620" y="215.892" fill="#FFFFFF" width="150" height="21"/>
	<ellipse opacity="0.6" fill="#0000FF" cx="609.289" cy="185.453" rx="11.754" ry="11.225"/>
	<path fill="#E6E6E6" d="M676,226.642c0,1.243-0.903,2.25-1.606,2.25h-46.12c-0.703,0-1.273-1.007-1.273-2.25v-0.5
		c0-1.243,0.57-2.25,1.273-2.25h46.12c0.703,0,1.606,1.007,1.606,2.25V226.642z"/>
	<rect x="620" y="262.892" fill="#FFFFFF" width="150" height="21"/>
	<ellipse fill="#E6E6E6" cx="633.238" cy="273.536" rx="7.703" ry="7.308"/>
	<path fill="#E6E6E6" d="M694,273.642c0,1.243-0.903,2.25-1.606,2.25h-46.12c-0.703,0-1.273-1.007-1.273-2.25v-0.5
		c0-1.243,0.57-2.25,1.273-2.25h46.12c0.703,0,1.606,1.007,1.606,2.25V273.642z"/>
	<rect x="726" y="267.892" opacity="0.6" fill="#CCCCCC" width="17" height="11"/>
	<rect x="743" y="267.892" opacity="0.6" fill="#CE3636" width="17" height="11"/>
	<rect x="620" y="283.892" fill="#FFFFFF" width="150" height="21"/>
	<ellipse fill="#E6E6E6" cx="633.238" cy="294.536" rx="7.703" ry="7.308"/>
	<path fill="#E6E6E6" d="M694,294.642c0,1.243-0.903,2.25-1.606,2.25h-46.12c-0.703,0-1.273-1.007-1.273-2.25v-0.5
		c0-1.243,0.57-2.25,1.273-2.25h46.12c0.703,0,1.606,1.007,1.606,2.25V294.642z"/>
	<rect x="726" y="288.892" opacity="0.6" fill="#5BC64F" width="17" height="11"/>
	<rect x="743" y="288.892" opacity="0.6" fill="#CCCCCC" width="17" height="11"/>
	<rect x="620" y="304.892" fill="#FFFFFF" width="150" height="21"/>
	<ellipse fill="#E6E6E6" cx="633.238" cy="315.536" rx="7.703" ry="7.308"/>
	<path fill="#E6E6E6" d="M694,315.642c0,1.243-0.903,2.25-1.606,2.25h-46.12c-0.703,0-1.273-1.007-1.273-2.25v-0.5
		c0-1.243,0.57-2.25,1.273-2.25h46.12c0.703,0,1.606,1.007,1.606,2.25V315.642z"/>
	<rect x="726" y="309.892" opacity="0.6" fill="#CCCCCC" width="17" height="11"/>
	<rect x="743" y="309.892" opacity="0.6" fill="#CE3636" width="17" height="11"/>
	<rect x="620" y="325.892" fill="#FFFFFF" width="150" height="21"/>
	<ellipse fill="#E6E6E6" cx="633.238" cy="336.536" rx="7.703" ry="7.308"/>
	<path fill="#E6E6E6" d="M694,336.642c0,1.243-0.903,2.25-1.606,2.25h-46.12c-0.703,0-1.273-1.007-1.273-2.25v-0.5
		c0-1.243,0.57-2.25,1.273-2.25h46.12c0.703,0,1.606,1.007,1.606,2.25V336.642z"/>
	<rect x="726" y="330.892" opacity="0.6" fill="#5BC64F" width="17" height="11"/>
	<rect x="743" y="330.892" opacity="0.6" fill="#E7E7E7" width="17" height="11"/>
	<rect x="620" y="346.892" fill="#FFFFFF" width="150" height="21"/>
	<ellipse fill="#E6E6E6" cx="633.238" cy="357.536" rx="7.703" ry="7.308"/>
	<path fill="#E6E6E6" d="M694,357.642c0,1.243-0.903,2.25-1.606,2.25h-46.12c-0.703,0-1.273-1.007-1.273-2.25v-0.5
		c0-1.243,0.57-2.25,1.273-2.25h46.12c0.703,0,1.606,1.007,1.606,2.25V357.642z"/>
	<rect x="726" y="351.892" opacity="0.6" fill="#5BC64F" width="17" height="11"/>
	<rect x="743" y="351.892" opacity="0.6" fill="#E7E7E7" width="17" height="11"/>
	<rect x="620" y="367.892" fill="#FFFFFF" width="150" height="21"/>
	<ellipse fill="#E6E6E6" cx="633.238" cy="378.536" rx="7.703" ry="7.308"/>
	<path fill="#E6E6E6" d="M694,378.642c0,1.242-0.903,2.25-1.606,2.25h-46.12c-0.703,0-1.273-1.008-1.273-2.25v-0.5
		c0-1.242,0.57-2.25,1.273-2.25h46.12c0.703,0,1.606,1.008,1.606,2.25V378.642z"/>
	<rect x="726" y="372.892" opacity="0.6" fill="#CCCCCC" width="17" height="11"/>
	<rect x="743" y="372.892" opacity="0.6" fill="#CE3636" width="17" height="11"/>
	<rect x="620" y="388.892" fill="#FFFFFF" width="150" height="21"/>
	<ellipse fill="#E6E6E6" cx="633.238" cy="399.536" rx="7.703" ry="7.308"/>
	<path fill="#E6E6E6" d="M694,399.642c0,1.242-0.903,2.25-1.606,2.25h-46.12c-0.703,0-1.273-1.008-1.273-2.25v-0.5
		c0-1.242,0.57-2.25,1.273-2.25h46.12c0.703,0,1.606,1.008,1.606,2.25V399.642z"/>
	<rect x="726" y="393.892" opacity="0.6" fill="#CCCCCC" width="17" height="11"/>
	<rect x="743" y="393.892" opacity="0.6" fill="#CE3636" width="17" height="11"/>
	<ellipse opacity="0.5" fill="#0000FF" cx="763.289" cy="469.453" rx="11.754" ry="11.225"/>
</g>
<g id="cell">
	<g id="XMLID_2_">
		<g>
			<path fill="#232323" d="M799.496,567.382c-0.01,0-0.02,0-0.029,0c-0.431,0.04-0.86,0.061-1.301,0.061h-203.66
				c-0.01,0-0.01,0-0.01,0c-7-0.011-12.66-5.37-12.66-12v-414c0-5.18,3.46-9.59,8.31-11.27c1.36-0.47,2.83-0.73,4.36-0.73h203.66
				c1.75,0,3.42,0.34,4.931,0.94c4.55,1.82,7.739,6.09,7.739,11.06v414C810.836,561.653,805.866,566.752,799.496,567.382z
				 M802.836,530.443v-361h-212v361H802.836z M705.757,144.112c0-4.24-3.561-7.67-7.96-7.67c-4.4,0-7.961,3.43-7.961,7.67
				c0,4.24,3.561,7.67,7.961,7.67C702.196,151.782,705.757,148.353,705.757,144.112z"/>
			<path fill="#232323" d="M803.387,129.702l-0.29,0.68c-1.511-0.6-3.181-0.94-4.931-0.94h-203.66c-1.53,0-3,0.26-4.36,0.73
				l-0.09-0.26c15.39-5.36,59.029-12.23,105.34-12.27c0.15,0,0.29,0,0.439,0C745.477,117.683,790.326,124.042,803.387,129.702z"/>
			<path fill="#232323" d="M798.166,567.443c0.44,0,0.87-0.021,1.301-0.061c-17.28,5.16-58.021,10.3-102.631,10.33
				c-0.149,0-0.289,0-0.439,0c-43.37-0.04-84.25-5.22-101.89-10.27H798.166z"/>
			<path fill="#444444" d="M697.797,136.442c4.399,0,7.96,3.43,7.96,7.67c0,4.24-3.561,7.67-7.96,7.67c-4.4,0-7.961-3.43-7.961-7.67
				C689.836,139.873,693.396,136.442,697.797,136.442z"/>
		</g>
		<g>
		</g>
	</g>
	<linearGradient id="SVGID_5_" gradientUnits="userSpaceOnUse" x1="633.4805" y1="486.8921" x2="805.3877" y2="486.8921">
		<stop  offset="0" style="stop-color:#FFFFFF"/>
		<stop  offset="1" style="stop-color:#000000"/>
	</linearGradient>
	<path opacity="0.24" fill="url(#SVGID_5_)" d="M753.907,486.892c-56.907,0-114.907,0-171.907,0"/>
	<linearGradient id="SVGID_6_" gradientUnits="userSpaceOnUse" x1="802.2002" y1="486.8921" x2="814.7617" y2="486.8921">
		<stop  offset="0" style="stop-color:#FFFFFF"/>
		<stop  offset="1" style="stop-color:#000000"/>
	</linearGradient>
	<path opacity="0.24" fill="url(#SVGID_6_)" d="M811,486.892c-4.188,0-8.374,0-12.562,0"/>
	
		<linearGradient id="SVGID_7_" gradientUnits="userSpaceOnUse" x1="-1237.4312" y1="147.1421" x2="-599.4496" y2="147.1421" gradientTransform="matrix(-0.347 0 0 1 314.1515 0)">
		<stop  offset="0" style="stop-color:#FFFFFF"/>
		<stop  offset="1" style="stop-color:#000000"/>
	</linearGradient>
	<path opacity="0.24" fill="url(#SVGID_7_)" d="M648.813,123.892l-60.356,6.55l25.166,39.95c0.743-0.115,1.494-0.184,2.247-0.231
		c2.691-1.065,5.604-1.557,8.631-1.269c7.646,0.728,15.252,1.374,22.881,1.129c6.557-0.73,13.064-1.095,19.799-1.223
		c20.455-0.388,40.914-1.432,61.32,0.594c0.925,0.092,1.839,0.225,2.74,0.391c0.889-0.008,1.777-0.017,2.665-0.002
		C705.524,132.75,648.813,123.892,648.813,123.892z"/>
	
		<linearGradient id="SVGID_8_" gradientUnits="userSpaceOnUse" x1="-1237.4312" y1="224.7061" x2="-599.4504" y2="224.7061" gradientTransform="matrix(-0.347 0 0 1 314.1515 0)">
		<stop  offset="0" style="stop-color:#FFFFFF"/>
		<stop  offset="1" style="stop-color:#000000"/>
	</linearGradient>
	<path opacity="0.24" fill="url(#SVGID_8_)" d="M758.597,231.65c-1.821-4.904-3.491-9.552-4.983-13.889
		c-2.426,0.972-5.006,1.546-7.635,1.668C751.19,222.291,755.982,226.582,758.597,231.65z"/>
	
		<linearGradient id="SVGID_9_" gradientUnits="userSpaceOnUse" x1="-1237.4312" y1="273.8184" x2="-599.4489" y2="273.8184" gradientTransform="matrix(-0.347 0 0 1 314.1515 0)">
		<stop  offset="0" style="stop-color:#FFFFFF"/>
		<stop  offset="1" style="stop-color:#000000"/>
	</linearGradient>
	<path opacity="0.24" fill="url(#SVGID_9_)" d="M776.377,276.5c-0.747-1.799-1.488-3.59-2.219-5.364
		c-0.385,1.237-0.835,2.45-1.37,3.623c0.094,0.412,0.167,0.826,0.243,1.24C774.149,276.086,775.268,276.25,776.377,276.5z"/>
	
		<linearGradient id="SVGID_10_" gradientUnits="userSpaceOnUse" x1="-1237.4312" y1="405.3521" x2="-599.4482" y2="405.3521" gradientTransform="matrix(-0.347 0 0 1 314.1515 0)">
		<stop  offset="0" style="stop-color:#FFFFFF"/>
		<stop  offset="1" style="stop-color:#000000"/>
	</linearGradient>
	<path opacity="0.24" fill="url(#SVGID_10_)" d="M809.5,428.181c-0.324-13.841-0.189-27.853,0-43.714
		c0.072-6.057,0.107-13.471,0.233-20.294c0.05-2.705-0.063-5.138-0.047-7.697c0.009-1.285,0.303-2.625-0.279-3.919
		c-3.382-7.516-6.769-15.127-10.132-22.745c-0.108,1.319-0.313,2.643-0.633,3.96c-0.153,0.633-0.274,1.757-0.347,2.56
		c-0.012,0.432-0.023,0.865-0.024,1.297c0.028,2.96,0.182,5.908,0.431,8.858c0.5,5.94,0.898,11.785,0.735,17.749
		c-0.323,11.822-0.002,23.64,0.051,35.463c0.102,22.599,2.036,45.227,1.31,67.823l8.423,13.37c0,0,0.617-8.887,0.615-24.497
		C809.835,448.571,809.746,438.667,809.5,428.181z"/>
</g>
</svg>
